<svg width="21" height="18" viewBox="0 0 21 18" fill="none" xmlns="http://www.w3.org/2000/svg">
<path d="M20.0237 3.14267H6.92846M4.5475 3.14267H0.976074M20.0237 15.0474H6.92846M4.5475 15.0474H0.976074M14.0713 9.09505H0.976074M20.0237 9.09505H16.4523M5.73798 0.761719C6.05371 0.761719 6.35652 0.887144 6.57977 1.1104C6.80303 1.33366 6.92846 1.63646 6.92846 1.95219V4.33315C6.92846 4.64888 6.80303 4.95168 6.57977 5.17494C6.35652 5.3982 6.05371 5.52362 5.73798 5.52362C5.42225 5.52362 5.11944 5.3982 4.89619 5.17494C4.67293 4.95168 4.5475 4.64888 4.5475 4.33315V1.95219C4.5475 1.63646 4.67293 1.33366 4.89619 1.1104C5.11944 0.887144 5.42225 0.761719 5.73798 0.761719V0.761719ZM5.73798 12.6665C6.05371 12.6665 6.35652 12.7919 6.57977 13.0152C6.80303 13.2384 6.92846 13.5412 6.92846 13.857V16.2379C6.92846 16.5536 6.80303 16.8564 6.57977 17.0797C6.35652 17.303 6.05371 17.4284 5.73798 17.4284C5.42225 17.4284 5.11944 17.303 4.89619 17.0797C4.67293 16.8564 4.5475 16.5536 4.5475 16.2379V13.857C4.5475 13.5412 4.67293 13.2384 4.89619 13.0152C5.11944 12.7919 5.42225 12.6665 5.73798 12.6665ZM15.2618 6.7141C15.5775 6.7141 15.8803 6.83952 16.1036 7.06278C16.3268 7.28604 16.4523 7.58884 16.4523 7.90458V10.2855C16.4523 10.6013 16.3268 10.9041 16.1036 11.1273C15.8803 11.3506 15.5775 11.476 15.2618 11.476C14.9461 11.476 14.6433 11.3506 14.42 11.1273C14.1967 10.9041 14.0713 10.6013 14.0713 10.2855V7.90458C14.0713 7.58884 14.1967 7.28604 14.42 7.06278C14.6433 6.83952 14.9461 6.7141 15.2618 6.7141V6.7141Z" stroke="black" stroke-linecap="round" stroke-linejoin="round"/>
</svg>
