<svg width="28" height="28" viewBox="0 0 28 28" fill="none" xmlns="http://www.w3.org/2000/svg">
<path d="M18.6668 22.1663C17.7386 22.1663 16.8483 21.7976 16.192 21.1412C15.5356 20.4848 15.1668 19.5946 15.1668 18.6663C15.1668 17.7381 15.5356 16.8478 16.192 16.1915C16.8483 15.5351 17.7386 15.1663 18.6668 15.1663C19.5951 15.1663 20.4853 15.5351 21.1417 16.1915C21.7981 16.8478 22.1668 17.7381 22.1668 18.6663C22.1668 19.5946 21.7981 20.4848 21.1417 21.1412C20.4853 21.7976 19.5951 22.1663 18.6668 22.1663ZM9.3335 22.1663C8.40524 22.1663 7.515 21.7976 6.85862 21.1412C6.20225 20.4848 5.8335 19.5946 5.8335 18.6663C5.8335 17.7381 6.20225 16.8478 6.85862 16.1915C7.515 15.5351 8.40524 15.1663 9.3335 15.1663C10.2618 15.1663 11.152 15.5351 11.8084 16.1915C12.4647 16.8478 12.8335 17.7381 12.8335 18.6663C12.8335 19.5946 12.4647 20.4848 11.8084 21.1412C11.152 21.7976 10.2618 22.1663 9.3335 22.1663ZM18.6668 12.833C17.7386 12.833 16.8483 12.4643 16.192 11.8079C15.5356 11.1515 15.1668 10.2613 15.1668 9.33301C15.1668 8.40475 15.5356 7.51451 16.192 6.85813C16.8483 6.20176 17.7386 5.83301 18.6668 5.83301C19.5951 5.83301 20.4853 6.20176 21.1417 6.85813C21.7981 7.51451 22.1668 8.40475 22.1668 9.33301C22.1668 10.2613 21.7981 11.1515 21.1417 11.8079C20.4853 12.4643 19.5951 12.833 18.6668 12.833ZM9.3335 12.833C8.40524 12.833 7.515 12.4643 6.85862 11.8079C6.20225 11.1515 5.8335 10.2613 5.8335 9.33301C5.8335 8.40475 6.20225 7.51451 6.85862 6.85813C7.515 6.20176 8.40524 5.83301 9.3335 5.83301C10.2618 5.83301 11.152 6.20176 11.8084 6.85813C12.4647 7.51451 12.8335 8.40475 12.8335 9.33301C12.8335 10.2613 12.4647 11.1515 11.8084 11.8079C11.152 12.4643 10.2618 12.833 9.3335 12.833Z" fill="black"/>
</svg>
